<?xml version="1.0" encoding="utf-8"?>
<!-- Generator: Adobe Illustrator 22.0.1, SVG Export Plug-In . SVG Version: 6.00 Build 0)  -->
<svg version="1.1" xmlns="http://www.w3.org/2000/svg" xmlns:xlink="http://www.w3.org/1999/xlink" x="0px" y="0px"
	 viewBox="0 0 571.2 83.7" style="enable-background:new 0 0 571.2 83.7;" xml:space="preserve">
<style type="text/css">
	.st0{fill:#FFFFFF;}
</style>
<g id="base">
</g>
<g id="color">
	<g>
		<path class="st0" d="M35.6,40.6v10.2h18.2l-0.1,3c0,6.2-1,10.1-3.1,11.8c-2,1.7-6.8,2.5-14.3,2.5c-7.7,0-12.6-1-14.8-2.9
			c-2.1-2-3.2-6.5-3.2-13.7l-0.1-9.3l0.1-7.3c0-7.3,1.1-12,3.2-14c2.1-2,7.2-3,15.2-3c7.3,0,11.9,0.6,13.7,1.7
			c1.8,1.2,2.9,4.1,3.1,8.9h13.9c0-9.4-1.9-15.5-5.6-18.3C58.2,7.4,49.8,6,36.9,6C27.1,6,20.1,6.9,16,8.7c-4.1,1.8-7.2,5.2-9.2,10.3
			c-1.6,4.2-2.4,14.2-2.4,30.1c0,12.4,2,20.7,6.1,24.7c4.1,4,12.4,6.1,24.9,6.1c13.7,0,22.5-1.5,26.4-4.5c3.9-3,5.9-9.8,5.9-20.3
			l-0.2-14.4H35.6z"/>
		<polygon class="st0" points="90.3,47.1 124.3,47.1 124.3,37 90.3,37 90.3,18.3 126.2,18.3 126.2,6.7 76.6,6.7 76.6,79.2 
			126.5,79.2 126.5,67.6 90.3,67.6 		"/>
		<path class="st0" d="M248.9,56.6c0,4.8-1,7.9-3.1,9.4c-2,1.4-6.5,2.1-13.3,2.1c-8.4,0-13.4-1.3-15-3.8c-1.5-2.6-2.3-10.8-2.3-24.7
			c0-10.3,0.9-16.5,2.6-18.6c1.7-2.1,6.8-3.1,15.4-3.1c6.4,0,10.5,0.7,12.2,2c1.8,1.3,2.7,4.4,2.7,9.1v1.9h13.8l-0.1-1.6
			c0-9.2-1.7-15.4-5.2-18.5C253.2,7.6,246.3,6,236,6c-14.2,0-23.5,1.9-28,5.7c-4.5,3.8-6.7,11.6-6.7,23.6c0,20.3,1.6,32.9,4.9,37.5
			c3.3,4.7,12.1,7,26.4,7c12.6,0,20.8-1.5,24.4-4.4c3.7-3,5.5-9.5,5.5-19.6v-2.5h-13.8L248.9,56.6z"/>
		<polygon class="st0" points="319.6,36.3 285.6,36.3 285.6,6.7 271.8,6.7 271.8,79.2 285.6,79.2 285.6,47.9 319.6,47.9 319.6,79.2 
			333.3,79.2 333.3,6.7 319.6,6.7 		"/>
		<rect x="346.6" y="6.7" class="st0" width="13.8" height="72.6"/>
		<path class="st0" d="M418.7,56.6c0,4.8-1,7.9-3.1,9.4c-2,1.4-6.5,2.1-13.3,2.1c-8.4,0-13.4-1.3-15-3.8c-1.5-2.6-2.3-10.8-2.3-24.7
			c0-10.3,0.9-16.5,2.6-18.6c1.7-2.1,6.8-3.1,15.4-3.1c6.4,0,10.5,0.7,12.2,2c1.8,1.3,2.7,4.4,2.7,9.1v1.9h13.8l-0.1-1.6
			c0-9.2-1.7-15.4-5.2-18.5C423.1,7.6,416.2,6,405.8,6c-14.2,0-23.5,1.9-28,5.7c-4.5,3.8-6.7,11.6-6.7,23.6
			c0,20.3,1.6,32.9,4.9,37.5c3.3,4.7,12.1,7,26.4,7c12.6,0,20.8-1.5,24.4-4.4c3.7-3,5.5-9.5,5.5-19.6v-2.5h-13.8L418.7,56.6z"/>
		<path class="st0" d="M459.3,6.7l-24.1,72.6h14.6l4.5-13.9h31.3l4.6,13.9h14.3L480,6.7H459.3z M457.5,55.1l12.3-37.8l12.5,37.8
			H457.5z"/>
		<path class="st0" d="M562.1,41.5c-3.2-2.5-10.2-4-21-4.6c-9.1-0.5-14.5-1.2-16.2-2.1c-1.6-0.9-2.5-3.7-2.5-8.2c0-3.9,1-6.4,3-7.6
			c2-1.2,6.3-1.8,12.8-1.8c5.5,0,9,0.5,10.5,1.6c1.5,1,2.4,3.6,2.7,7.7c0,0.3,0,0.8,0.1,1.5h13.4v-2.8c0-7.5-1.9-12.6-5.7-15.1
			C555.6,7.3,548.3,6,537.4,6c-11.5,0-19.2,1.4-23,4.2c-3.8,2.8-5.8,8.5-5.8,16.9c0,8.3,1.6,13.7,4.8,16.2c3.2,2.5,10.5,4.1,22,4.8
			l7.6,0.5c4.3,0.2,7.1,0.9,8.4,2.1c1.3,1.2,1.9,3.5,1.9,7c0,4.7-0.9,7.8-2.6,9.1c-1.7,1.3-5.6,2-11.8,2c-7.9,0-12.7-0.6-14.5-1.7
			c-1.8-1.1-2.7-4.2-2.7-9.3l-0.1-1.5h-13.4l0,2.7c0,8.4,1.9,14,5.6,16.8c3.7,2.8,11.3,4.1,22.7,4.1c12.7,0,20.9-1.4,24.6-4.2
			c3.7-2.8,5.6-9,5.6-18.7C566.9,49.1,565.3,44,562.1,41.5z"/>
		<path class="st0" d="M178,30.1c0-6.8-5.9-12.3-13.2-12.3c-7.3,0-13.2,5.5-13.2,12.3c0,6.8,5.9,12.3,13.2,12.3
			C172.1,42.4,178,36.9,178,30.1z"/>
		<path class="st0" d="M165.2,2.7c-16,0-28.9,12.1-28.9,27c0,5.4,1.7,11,4.6,15.2l7.6,12.5l13.4,0v-8.7c-9-1.3-17.3-9.3-17.3-19
			c0-10.6,9.3-19.2,20.6-19.2c11.3,0,20.4,8.6,20.4,19.2c0,9.4-7.9,17.3-16.9,18.9v8.9l13.5,0l7.3-12.5c1.4-2.1,2.6-4.7,3.4-7.2
			c0.8-2.5,1.2-5.2,1.2-7.9C194.1,15,181.1,2.7,165.2,2.7z"/>
		<polygon class="st0" points="168.7,80.9 180.8,63.1 168.6,63 		"/>
		<polygon class="st0" points="161.9,80.8 161.9,63.1 149.5,63.1 		"/>
	</g>
</g>
<g id="logos">
</g>
</svg>
