<?xml version="1.0" encoding="UTF-8" standalone="no"?>
<!-- Created with Inkscape (http://www.inkscape.org/) -->

<svg
   xmlns:dc="http://purl.org/dc/elements/1.1/"
   xmlns:cc="http://creativecommons.org/ns#"
   xmlns:rdf="http://www.w3.org/1999/02/22-rdf-syntax-ns#"
   xmlns:svg="http://www.w3.org/2000/svg"
   xmlns="http://www.w3.org/2000/svg"
   xmlns:sodipodi="http://sodipodi.sourceforge.net/DTD/sodipodi-0.dtd"
   xmlns:inkscape="http://www.inkscape.org/namespaces/inkscape"
   version="1.0"
   width="200"
   height="200"
   id="svg2"
   sodipodi:version="0.32"
   inkscape:version="0.92.5 (2060ec1f9f, 2020-04-08)"
   sodipodi:docname="female_placeholder.svg"
   inkscape:output_extension="org.inkscape.output.svg.inkscape">
  <metadata
     id="metadata6">
    <rdf:RDF>
      <cc:Work
         rdf:about="">
        <dc:format>image/svg+xml</dc:format>
        <dc:type
           rdf:resource="http://purl.org/dc/dcmitype/StillImage" />
      </cc:Work>
    </rdf:RDF>
  </metadata>
  <sodipodi:namedview
     inkscape:window-height="1405"
     inkscape:window-width="2556"
     inkscape:pageshadow="2"
     inkscape:pageopacity="0.0"
     guidetolerance="10.0"
     gridtolerance="10.0"
     objecttolerance="10.0"
     borderopacity="1.0"
     bordercolor="#666666"
     pagecolor="#ffffff"
     id="base"
     showgrid="false"
     inkscape:zoom="5.59"
     inkscape:cx="146.69052"
     inkscape:cy="100"
     inkscape:window-x="0"
     inkscape:window-y="31"
     inkscape:window-maximized="0"
     inkscape:current-layer="svg2" />
  <defs
     id="defs7">
    <inkscape:perspective
       sodipodi:type="inkscape:persp3d"
       inkscape:vp_x="0 : 100 : 1"
       inkscape:vp_y="0 : 1000 : 0"
       inkscape:vp_z="200 : 100 : 1"
       inkscape:persp3d-origin="100 : 66.666667 : 1"
       id="perspective8" />
    <inkscape:perspective
       id="perspective2386"
       inkscape:persp3d-origin="372.04724 : 350.78739 : 1"
       inkscape:vp_z="744.09448 : 526.18109 : 1"
       inkscape:vp_y="0 : 1000 : 0"
       inkscape:vp_x="0 : 526.18109 : 1"
       sodipodi:type="inkscape:persp3d" />
  </defs>
  <path
     d="M 119.2235,11.281871 C 125.90797,15.316282 131.56942,16.599642 138.32743,31.22287 C 148.1542,52.486346 148.04635,57.246661 152.1695,49.834337 C 151.38206,51.754432 150.64674,53.655144 151.22141,55.068817 C 152.04307,55.937175 152.86475,55.605089 153.68644,55.068817 C 153.20331,55.774454 153.85516,58.561285 155.01375,56.425906 C 155.83647,54.909565 155.77221,54.874944 155.77221,54.874944 C 156.34466,56.212911 156.03884,57.871172 156.15145,58.364599 C 157.28916,59.795982 158.42685,57.358715 159.56457,54.874944 C 159.81819,56.964369 159.64892,59.250645 158.04763,61.466503 C 161.82674,63.069428 161.91087,58.472017 161.08149,55.262683 C 162.33884,57.320956 163.33717,59.627516 162.59845,63.599063 C 163.04088,64.378572 163.48332,62.643675 163.92576,62.048115 C 163.798,63.193974 163.92377,65.257298 162.88288,65.586221 C 163.5594,65.830465 164.4184,66.53144 165.67972,65.101554 C 165.80808,68.581392 164.79908,70.954252 160.03861,69.948284 C 161.45546,70.894506 161.68114,77.564811 164.30499,72.710928 C 165.24375,74.15872 163.60933,75.124584 162.83547,78.090805 C 162.37169,85.042058 157.95524,84.135187 155.44039,87.008799 C 154.7916,90.127777 154.24564,91.004453 153.27562,93.309385 C 152.65705,94.779213 157.03233,98.040276 157.20303,91.690612 C 157.92167,98.083384 152.39255,95.668727 150.43788,98.691513 C 149.73689,99.380771 148.95898,99.920613 148.09272,100.28886 C 142.15515,103.95526 138.90795,113.90644 136.33646,115.11987 C 135.47228,116.01713 129.94118,115.91151 127.04522,115.41067 C 125.58775,118.94905 124.4405,120.6803 122.35219,122.58385 C 120.04773,127.62021 118.23305,139.28311 125.33866,145.07271 C 137.13314,154.68275 140.73275,157.51162 155.81962,160.72767 C 189.27055,167.85835 186.15838,185.69808 192.4962,200.08428 L 7.5634077,199.93056 C 13.028322,186.34484 10.471971,168.31307 44.135101,160.00066 C 56.36733,156.98016 61.379105,154.14461 71.677001,145.21811 C 78.100103,139.65038 76.798016,128.28807 75.374536,122.14764 C 70.255006,121.57675 67.603355,120.16479 66.652138,118.17332 C 64.199915,118.17493 61.539075,118.62444 61.53248,113.37505 C 54.894607,116.49102 51.894444,111.27066 48.828129,106.20188 C 45.793844,104.68822 42.035927,105.26357 41.006422,97.962427 L 40.15314,95.587519 C 38.750432,93.586508 39.400507,90.778264 39.536885,88.172013 C 40.437569,89.548452 40.959015,89.887909 41.859699,90.401512 C 35.099487,82.239627 39.13531,77.261822 38.209564,70.820698 C 39.882074,71.759961 41.265019,71.288693 42.665569,70.48143 L 39.726504,69.802888 C 39.726504,69.802888 51.898265,69.572362 45.41502,68.833536 C 40.41101,68.263285 40.67459,65.392356 40.67459,65.392356 C 42.130024,66.220168 43.434911,67.331422 44.893574,66.022434 C 44.884152,64.292805 45.397873,62.892349 47.026765,62.193525 C 44.967518,59.112264 48.305763,51.563483 46.742341,48.186449 C 47.668692,48.844476 48.291906,50.380664 49.918427,49.010395 C 50.956273,46.224539 51.506048,45.215877 53.047113,44.745266 C 53.97053,41.963983 55.364883,40.001243 57.55052,39.413856 C 57.55052,39.413856 60.406633,30.205057 62.385756,26.957741 C 67.208703,19.044356 69.259377,17.340292 78.361006,11.524208 C 87.316679,5.8013927 94.296453,5.4783017 98.792258,7.7922197 C 101.35924,9.1134057 103.03494,9.2947077 104.19635,9.2947087 C 107.53835,9.2947087 110.1112,5.7821347 119.2235,11.281871 z"
     id="path4"
     style="fill:#19535f;fill-opacity:1" />
</svg>
