<svg width="131" height="18" viewBox="0 0 131 18" version="1.1" xmlns="http://www.w3.org/2000/svg" xmlns:xlink="http://www.w3.org/1999/xlink">
<title>Logo Geochicas</title>
<desc>Created using Figma</desc>
<g id="Canvas" transform="translate(4825 -3022)">
<g id="Logo Geochicas">
<g id="Vector">
<use xlink:href="#path0_fill" transform="translate(-4825 3022.74)" fill="#FFFFFF"/>
</g>
<g id="Vector">
<use xlink:href="#path1_fill" transform="translate(-4808.19 3022.9)" fill="#FFFFFF"/>
</g>
<g id="Vector">
<use xlink:href="#path2_fill" transform="translate(-4779.15 3022.79)" fill="#FFFFFF"/>
</g>
<g id="Vector">
<use xlink:href="#path3_fill" transform="translate(-4762.72 3022.9)" fill="#FFFFFF"/>
</g>
<g id="Vector">
<use xlink:href="#path4_fill" transform="translate(-4745.27 3022.9)" fill="#FFFFFF"/>
</g>
<g id="Vector">
<use xlink:href="#path5_fill" transform="translate(-4739.59 3022.79)" fill="#FFFFFF"/>
</g>
<g id="Vector">
<use xlink:href="#path6_fill" transform="translate(-4724.65 3022.9)" fill="#FFFFFF"/>
</g>
<g id="Vector">
<use xlink:href="#path7_fill" transform="translate(-4707.63 3022.74)" fill="#FFFFFF"/>
</g>
<g id="Vector">
<use xlink:href="#path8_fill" transform="translate(-4790.68 3025.44)" fill="#FFFFFF"/>
</g>
<g id="Vector">
<use xlink:href="#path9_fill" transform="translate(-4794.28 3022)" fill="#FFFFFF"/>
</g>
<g id="Vector">
<use xlink:href="#path10_fill" transform="translate(-4786.75 3035.86)" fill="#FFFFFF"/>
</g>
<g id="Vector">
<use xlink:href="#path11_fill" transform="translate(-4791.19 3035.89)" fill="#FFFFFF"/>
</g>
</g>
</g>
<defs>
<path id="path0_fill" d="M 7.27123 7.97176L 7.27123 10.3055L 11.5264 10.3055L 11.503 10.9987C 11.503 12.4313 11.2692 13.3325 10.8016 13.7253C 10.334 14.1181 9.21179 14.3029 7.45828 14.3029C 5.658 14.3029 4.51237 14.0719 4.02139 13.6329C 3.53041 13.1707 3.27322 12.1309 3.27322 10.4673L 3.24984 8.31836L 3.27322 6.63158C 3.27322 4.9448 3.53041 3.85879 4.02139 3.41977C 4.51237 2.95764 5.70476 2.72657 7.5518 2.72657C 9.25855 2.72657 10.334 2.86521 10.7549 3.11938C 11.1757 3.37356 11.4095 4.06675 11.4797 5.15276L 14.7295 5.15276C 14.7295 2.98074 14.2853 1.57124 13.4202 0.947368C 12.5552 0.323492 10.6146 1.10181e-08 7.59856 1.10181e-08C 5.3073 1.10181e-08 3.67069 0.207959 2.7121 0.60077C 1.75351 1.01669 1.02873 1.80231 0.561124 2.98074C 0.187041 3.97433 0 6.28498 0 9.93581C 0 12.801 0.467603 14.6958 1.42619 15.62C 2.38478 16.5443 4.30195 17.0064 7.22447 17.0064C 10.4042 17.0064 12.4616 16.6598 13.3735 15.9666C 14.2853 15.2734 14.7529 13.7022 14.7529 11.2991L 14.7295 7.97176L 7.27123 7.97176Z"/>
<path id="path1_fill" d="M 3.20308 9.31194L 11.129 9.31194L 11.129 6.97818L 3.20308 6.97818L 3.20308 2.68036L 11.5732 2.68036L 11.5732 2.20361e-08L 3.56753e-07 2.20361e-08L 3.56753e-07 16.706L 11.6433 16.706L 11.6433 14.0257L 3.20308 14.0257L 3.20308 9.31194Z"/>
<path id="path2_fill" d="M 11.1056 11.5995C 11.1056 12.7086 10.8718 13.4249 10.4042 13.7484C 9.93657 14.0719 8.88447 14.2336 7.29461 14.2336C 5.33068 14.2336 4.16167 13.9332 3.81097 13.3556C 3.46026 12.7779 3.27323 10.8832 3.27323 7.67137C 3.27323 5.2914 3.48364 3.85879 3.88111 3.39666C 4.27857 2.91142 5.47096 2.68036 7.45827 2.68036C 8.95461 2.68036 9.88981 2.8421 10.3107 3.14249C 10.7315 3.44287 10.9419 4.13607 10.9419 5.24519L 10.9419 5.68421L 14.1684 5.68421L 14.145 5.3145C 14.145 3.1887 13.7475 1.7792 12.9292 1.0629C 12.1109 0.346598 10.5211 2.20361e-08 8.08954 2.20361e-08C 4.76955 2.20361e-08 2.5952 0.439024 1.56647 1.29397C 0.537745 2.17201 1.42701e-06 3.97433 1.42701e-06 6.724C 1.42701e-06 11.4146 0.374083 14.2798 1.14563 15.3659C 1.91717 16.4519 3.97463 16.9833 7.29461 16.9833C 10.2405 16.9833 12.1343 16.6367 12.9994 15.9666C 13.8644 15.2965 14.2853 13.7946 14.2853 11.4608L 14.2853 10.8832L 11.0588 10.8832L 11.1056 11.5995Z"/>
<path id="path3_fill" d="M 11.129 6.81643L 3.20309 6.81643L 3.20309 2.20361e-08L -1.42701e-06 2.20361e-08L -1.42701e-06 16.706L 3.20309 16.706L 3.20309 9.47368L 11.129 9.47368L 11.129 16.706L 14.332 16.706L 14.332 2.20361e-08L 11.129 2.20361e-08L 11.129 6.81643Z"/>
<path id="path4_fill" d="M 3.20309 0L 0 0L 0 16.706L 3.20309 16.706L 3.20309 0Z"/>
<path id="path5_fill" d="M 11.1056 11.5995C 11.1056 12.7086 10.8718 13.4249 10.4042 13.7484C 9.93657 14.0719 8.88447 14.2336 7.29461 14.2336C 5.33068 14.2336 4.16167 13.9332 3.81097 13.3556C 3.46027 12.7779 3.27322 10.8832 3.27322 7.67137C 3.27322 5.2914 3.48364 3.85879 3.88111 3.39666C 4.27857 2.91142 5.47096 2.68036 7.45828 2.68036C 8.95461 2.68036 9.88981 2.8421 10.3107 3.14249C 10.7315 3.44287 10.9419 4.13607 10.9419 5.24519L 10.9419 5.68421L 14.1684 5.68421L 14.145 5.3145C 14.145 3.1887 13.7475 1.7792 12.9292 1.0629C 12.1109 0.346598 10.5211 2.20361e-08 8.08954 2.20361e-08C 4.79293 2.20361e-08 2.5952 0.439024 1.56647 1.29397C 0.537744 2.17201 -2.85403e-06 3.97433 -2.85403e-06 6.724C -2.85403e-06 11.4146 0.374086 14.2798 1.14563 15.3659C 1.91718 16.4519 3.97463 16.9833 7.29461 16.9833C 10.2405 16.9833 12.1343 16.6367 12.9994 15.9666C 13.8644 15.2965 14.2853 13.7946 14.2853 11.4608L 14.2853 10.8832L 11.0588 10.8832L 11.1056 11.5995Z"/>
<path id="path6_fill" d="M 5.61124 2.20361e-08L 2.85403e-06 16.706L 3.39013 16.706L 4.44224 13.4942L 11.7368 13.4942L 12.8123 16.706L 16.1323 16.706L 10.4276 2.20361e-08L 5.61124 2.20361e-08ZM 5.1904 11.1605L 8.06616 2.4724L 10.9887 11.1605L 5.1904 11.1605Z"/>
<path id="path7_fill" d="M 12.5552 8.17972C 11.807 7.60205 10.1938 7.25545 7.66869 7.11682C 5.5411 7.00128 4.27857 6.83954 3.90449 6.63158C 3.53041 6.42362 3.34336 5.77664 3.34336 4.73684C 3.34336 3.85879 3.57716 3.25802 4.04477 2.98074C 4.51237 2.70347 5.49434 2.56483 7.01405 2.56483C 8.29996 2.56483 9.11827 2.68036 9.46897 2.93453C 9.81967 3.1656 10.0301 3.76637 10.1002 4.69063C 10.1002 4.75995 10.1002 4.87548 10.1236 5.03723L 13.2566 5.03723L 13.2566 4.39024C 13.2566 2.65725 12.8123 1.50193 11.9239 0.901155C 11.0354 0.300385 9.32869 1.10181e-08 6.78025 1.10181e-08C 4.09153 1.10181e-08 2.31464 0.323492 1.40281 0.970475C 0.514364 1.61746 0.0701377 2.91142 0.0701377 4.87548C 0.0701377 6.79332 0.444225 8.01797 1.19239 8.61874C 1.94056 9.1964 3.64731 9.56611 6.31265 9.72785L 8.08953 9.84339C 9.09488 9.8896 9.74954 10.0513 10.0301 10.3286C 10.334 10.5828 10.4743 11.1374 10.4743 11.9461C 10.4743 13.0321 10.2873 13.7253 9.88981 14.0488C 9.49235 14.3492 8.58052 14.5109 7.13095 14.5109C 5.28392 14.5109 4.16167 14.3723 3.74083 14.1181C 3.31998 13.8639 3.13295 13.1476 3.13295 11.9692L 3.10956 11.6226L -1.32901e-14 11.6226L -1.32901e-14 12.2234C -1.32901e-14 14.1643 0.444225 15.4583 1.30929 16.0822C 2.17436 16.7291 3.95125 17.0295 6.59321 17.0295C 9.53911 17.0295 11.4563 16.706 12.3214 16.059C 13.1864 15.4121 13.6306 13.9795 13.6306 11.7612C 13.654 9.93581 13.2799 8.75738 12.5552 8.17972Z"/>
<path id="path8_fill" d="M 6.12561 2.84211C 6.12561 1.27086 4.74617 -8.81445e-08 3.0628 -8.81445e-08C 1.37943 -8.81445e-08 7.13506e-07 1.27086 7.13506e-07 2.84211C 7.13506e-07 4.41335 1.37943 5.68421 3.0628 5.68421C 4.76955 5.68421 6.12561 4.41335 6.12561 2.84211Z"/>
<path id="path9_fill" d="M 6.73349 0C 3.01604 0 -1.42701e-06 2.79589 -1.42701e-06 6.21566C -1.42701e-06 7.46341 0.397463 8.73427 1.07549 9.70475L 2.85238 12.5931L 5.96194 12.5931L 5.96194 10.5828C 3.85773 10.2824 1.91718 8.43389 1.91718 6.21566C 1.91718 3.78947 4.06815 1.80231 6.71011 1.80231C 9.35207 1.80231 11.4563 3.76637 11.4563 6.21566C 11.4563 8.38767 9.60925 10.19 7.52842 10.5597L 7.52842 12.5931L 10.6847 12.5931L 12.3915 9.70475C 12.7188 9.21951 12.9994 8.61874 13.1864 8.06418C 13.3735 7.50963 13.467 6.86264 13.467 6.23877C 13.467 2.819 10.4509 0 6.73349 0Z"/>
<path id="path10_fill" d="M 0.0233795 4.13607L 2.85238 0.0231062L 1.42701e-06 0L 0.0233795 4.13607Z"/>
<path id="path11_fill" d="M 2.87576 4.06675L 2.87576 -3.52578e-07L 1.42701e-06 -3.52578e-07L 2.87576 4.06675Z"/>
</defs>
</svg>
