<?xml version="1.0" encoding="utf-8"?>
<!-- Generator: Adobe Illustrator 22.0.1, SVG Export Plug-In . SVG Version: 6.00 Build 0)  -->
<svg version="1.1" id="Layer_1" xmlns="http://www.w3.org/2000/svg" xmlns:xlink="http://www.w3.org/1999/xlink" x="0px" y="0px"
	 viewBox="0 0 431 200" style="enable-background:new 0 0 431 200;" xml:space="preserve">
<style type="text/css">
	.st0{fill:#D6FFF6;}
	.st1{fill:#00B99E;}
	.st2{fill:#FFCA3A;}
	.st3{fill:#19535F;}
</style>
<g>
	<path class="st0" d="M424.3,83L416,71.7c-1.9-2.5-4.9-4-8-4h-47v-7.4h4.3c2.1,0,3.8-1.7,3.8-3.8V21.9c0-2.1-1.7-3.8-3.8-3.8H361
		v-4.7C361,7.7,356.3,3,350.6,3c-5.7,0-10.4,4.7-10.4,10.4v4.7h-48.7c-3.1,0-6.1,1.5-8,4l-8.4,11.3c-2.6,3.5-2.6,8.1,0,11.5
		l8.4,11.3c1.9,2.5,4.9,4,8,4h48.7v7.4h-6c-2.1,0-3.8,1.7-3.8,3.8v34.6c0,2.1,1.7,3.8,3.8,3.8h6v63.7c-5.3,3.3-8.9,9.2-9.2,15.8
		h-14.4c-2.1,0-3.8,1.7-3.8,3.8s1.7,3.8,3.8,3.8h18.2h31.6h16.5c2.1,0,3.8-1.7,3.8-3.8s-1.7-3.8-3.8-3.8h-12.7
		c-0.3-6.7-3.9-12.5-9.2-15.8v-63.7h47c3.1,0,6.1-1.5,8-4l8.4-11.3C426.9,91.1,426.9,86.5,424.3,83z"/>
	<g>
		<g>
			<path class="st1" d="M6,61c-0.5-0.5-0.8-1.3-0.8-2.3V34.6c0-1,0.3-1.8,0.9-2.4c0.6-0.6,1.4-0.9,2.5-0.9s1.9,0.3,2.5,0.9
				c0.6,0.6,0.9,1.4,0.9,2.4v21.8h11c2.1,0,3.1,0.9,3.1,2.8c0,1.8-1,2.7-3.1,2.7H8.3C7.3,61.8,6.5,61.6,6,61z"/>
			<path class="st1" d="M58,59.1c0,0.8-0.3,1.5-1,2c-0.6,0.6-1.4,0.8-2.2,0.8c-0.5,0-1.1-0.2-1.6-0.5c-0.5-0.3-0.9-0.8-1.1-1.4
				l-2.3-5.1H35.3L33,60.2c-0.3,0.6-0.6,1.1-1.1,1.4c-0.5,0.3-1,0.5-1.6,0.5c-0.8,0-1.6-0.3-2.2-0.8c-0.7-0.6-1-1.2-1-2
				c0-0.4,0.1-0.9,0.3-1.4l11.6-24.4c0.3-0.7,0.8-1.2,1.4-1.6c0.6-0.4,1.3-0.5,2-0.5c0.7,0,1.4,0.2,2.1,0.6c0.6,0.4,1.1,0.9,1.5,1.6
				l11.6,24.4C57.9,58.3,58,58.7,58,59.1z M37.6,50h10l-5-11.2L37.6,50z"/>
			<path class="st1" d="M65.9,61.4c-2-0.5-3.5-1.3-4.8-2.3c-0.4-0.3-0.7-0.7-0.9-1c-0.2-0.4-0.3-0.8-0.3-1.4c0-0.7,0.2-1.4,0.7-1.9
				c0.4-0.5,1-0.8,1.5-0.8c0.3,0,0.6,0.1,0.9,0.2c0.3,0.1,0.7,0.3,1.1,0.5c1.2,0.8,2.5,1.3,3.8,1.7c1.3,0.4,2.7,0.5,4.2,0.5
				c1.9,0,3.3-0.3,4.4-0.9c1-0.6,1.5-1.5,1.5-2.7c0-0.9-0.5-1.6-1.4-2.2c-0.9-0.5-2.6-1.1-5-1.6c-2.7-0.5-4.8-1.2-6.4-2
				c-1.6-0.8-2.8-1.7-3.5-2.9c-0.7-1.1-1.1-2.5-1.1-4.2c0-1.8,0.5-3.4,1.6-4.9c1-1.5,2.5-2.6,4.4-3.4s3.9-1.2,6.3-1.2
				c4.1,0,7.4,1,10.1,3.1c0.4,0.3,0.7,0.7,0.9,1.1c0.2,0.4,0.3,0.8,0.3,1.3c0,0.7-0.2,1.4-0.7,1.9c-0.4,0.5-1,0.8-1.5,0.8
				c-0.3,0-0.6,0-0.9-0.1c-0.3-0.1-0.7-0.3-1.1-0.6c-1.2-0.7-2.3-1.3-3.3-1.7c-1-0.4-2.2-0.6-3.8-0.6c-1.8,0-3.1,0.3-4.1,1
				c-1,0.7-1.5,1.6-1.5,2.8c0,0.7,0.2,1.3,0.6,1.7c0.4,0.4,1,0.8,1.9,1.2c0.9,0.3,2.2,0.7,3.9,1.1c3.9,0.9,6.7,2,8.4,3.3
				c1.7,1.4,2.6,3.2,2.6,5.6c0,1.8-0.5,3.5-1.5,4.9c-1,1.4-2.5,2.5-4.3,3.3s-4,1.2-6.4,1.2C70,62.2,67.9,62,65.9,61.4z"/>
			<path class="st1" d="M107.5,60.3c-2.2-1.3-4-3.1-5.2-5.4c-1.2-2.4-1.8-5.1-1.8-8.3c0-3.2,0.6-5.9,1.8-8.3
				c1.2-2.3,2.9-4.1,5.2-5.4c2.2-1.3,4.9-1.9,7.8-1.9c3.8,0,7,1,9.7,3.1c0.4,0.3,0.7,0.7,0.9,1s0.3,0.8,0.3,1.3
				c0,0.7-0.2,1.4-0.6,1.9c-0.4,0.5-0.9,0.8-1.5,0.8c-0.4,0-0.8,0-1.1-0.2c-0.3-0.1-0.6-0.3-1-0.5c-1.1-0.7-2.2-1.3-3.2-1.6
				c-1-0.3-2-0.5-3.1-0.5c-2.8,0-4.8,0.9-6.2,2.6c-1.4,1.7-2.1,4.3-2.1,7.7c0,6.8,2.8,10.3,8.3,10.3c1.1,0,2.1-0.2,3-0.5
				c0.9-0.3,2.1-0.9,3.3-1.6c0.4-0.3,0.8-0.4,1.1-0.5c0.3-0.1,0.6-0.2,1-0.2c0.6,0,1.1,0.3,1.5,0.8c0.4,0.5,0.6,1.2,0.6,1.9
				c0,0.5-0.1,1-0.3,1.3c-0.2,0.4-0.5,0.7-0.9,1c-2.7,2.1-6,3.1-9.7,3.1C112.4,62.2,109.8,61.6,107.5,60.3z"/>
			<path class="st1" d="M158.9,59.1c0,0.8-0.3,1.5-1,2c-0.6,0.6-1.4,0.8-2.2,0.8c-0.5,0-1.1-0.2-1.6-0.5c-0.5-0.3-0.9-0.8-1.1-1.4
				l-2.3-5.1h-14.6l-2.3,5.1c-0.3,0.6-0.6,1.1-1.1,1.4c-0.5,0.3-1,0.5-1.6,0.5c-0.8,0-1.6-0.3-2.2-0.8c-0.7-0.6-1-1.2-1-2
				c0-0.4,0.1-0.9,0.3-1.4l11.6-24.4c0.3-0.7,0.8-1.2,1.4-1.6c0.6-0.4,1.3-0.5,2-0.5c0.7,0,1.4,0.2,2.1,0.6c0.6,0.4,1.1,0.9,1.5,1.6
				l11.6,24.4C158.8,58.3,158.9,58.7,158.9,59.1z M138.4,50h10l-5-11.2L138.4,50z"/>
			<path class="st1" d="M163.4,61c-0.5-0.5-0.8-1.3-0.8-2.3V34.6c0-1,0.3-1.8,0.9-2.4c0.6-0.6,1.4-0.9,2.5-0.9s1.9,0.3,2.5,0.9
				c0.6,0.6,0.9,1.4,0.9,2.4v21.8h11c2.1,0,3.1,0.9,3.1,2.8c0,1.8-1,2.7-3.1,2.7h-14.6C164.7,61.8,164,61.6,163.4,61z"/>
			<path class="st1" d="M187.7,61c-0.5-0.5-0.8-1.3-0.8-2.3V34.6c0-1,0.3-1.8,0.9-2.4c0.6-0.6,1.4-0.9,2.5-0.9s1.9,0.3,2.5,0.9
				c0.6,0.6,0.9,1.4,0.9,2.4v21.8h11c2.1,0,3.1,0.9,3.1,2.8c0,1.8-1,2.7-3.1,2.7H190C189,61.8,188.2,61.6,187.7,61z"/>
			<path class="st1" d="M211.9,61c-0.5-0.5-0.8-1.3-0.8-2.3V34.6c0-1,0.3-1.8,0.8-2.3c0.5-0.5,1.3-0.8,2.3-0.8h15.3
				c2.1,0,3.2,0.9,3.2,2.6c0,1.8-1.1,2.6-3.2,2.6h-11.9v7.1h11c2.1,0,3.2,0.9,3.2,2.6c0,1.7-1.1,2.6-3.2,2.6h-11v7.6h11.9
				c2.1,0,3.2,0.9,3.2,2.6c0,1.7-1.1,2.6-3.2,2.6h-15.3C213.3,61.8,212.5,61.6,211.9,61z"/>
			<path class="st1" d="M240.9,61.4c-2-0.5-3.5-1.3-4.8-2.3c-0.4-0.3-0.7-0.7-0.9-1c-0.2-0.4-0.3-0.8-0.3-1.4c0-0.7,0.2-1.4,0.7-1.9
				c0.4-0.5,1-0.8,1.5-0.8c0.3,0,0.6,0.1,0.9,0.2c0.3,0.1,0.7,0.3,1.1,0.5c1.2,0.8,2.5,1.3,3.8,1.7c1.3,0.4,2.7,0.5,4.2,0.5
				c1.9,0,3.3-0.3,4.4-0.9c1-0.6,1.5-1.5,1.5-2.7c0-0.9-0.5-1.6-1.4-2.2c-0.9-0.5-2.6-1.1-5-1.6c-2.7-0.5-4.8-1.2-6.4-2
				c-1.6-0.8-2.8-1.7-3.5-2.9c-0.7-1.1-1.1-2.5-1.1-4.2c0-1.8,0.5-3.4,1.6-4.9c1-1.5,2.5-2.6,4.4-3.4c1.9-0.8,3.9-1.2,6.3-1.2
				c4.1,0,7.4,1,10.1,3.1c0.4,0.3,0.7,0.7,0.9,1.1c0.2,0.4,0.3,0.8,0.3,1.3c0,0.7-0.2,1.4-0.7,1.9c-0.4,0.5-1,0.8-1.5,0.8
				c-0.3,0-0.6,0-0.9-0.1c-0.3-0.1-0.7-0.3-1.1-0.6c-1.2-0.7-2.3-1.3-3.3-1.7c-1-0.4-2.2-0.6-3.8-0.6c-1.8,0-3.1,0.3-4.1,1
				c-1,0.7-1.5,1.6-1.5,2.8c0,0.7,0.2,1.3,0.6,1.7c0.4,0.4,1,0.8,1.9,1.2c0.9,0.3,2.2,0.7,3.9,1.1c3.9,0.9,6.7,2,8.4,3.3
				c1.7,1.4,2.6,3.2,2.6,5.6c0,1.8-0.5,3.5-1.5,4.9c-1,1.4-2.5,2.5-4.3,3.3c-1.9,0.8-4,1.2-6.4,1.2C244.9,62.2,242.8,62,240.9,61.4z
				"/>
		</g>
	</g>
	<g>
		<path class="st2" d="M54.8,121.6c1,1.1,1.5,2.4,1.5,4.1v42c0,1.6-0.5,2.9-1.4,3.8c-0.9,0.9-2.2,1.4-3.7,1.4
			c-1.5,0-2.7-0.5-3.6-1.4c-0.9-0.9-1.4-2.2-1.4-3.8v-26.1l-10.5,19.7c-0.7,1.3-1.4,2.2-2.3,2.8c-0.8,0.6-1.8,0.9-2.9,0.9
			c-1.1,0-2-0.3-2.9-0.9c-0.8-0.6-1.6-1.5-2.3-2.8L14.9,142v25.7c0,1.6-0.5,2.8-1.4,3.8c-0.9,1-2.2,1.4-3.7,1.4
			c-1.5,0-2.7-0.5-3.6-1.4c-0.9-0.9-1.4-2.2-1.4-3.8v-42c0-1.7,0.5-3,1.5-4.1c1-1.1,2.3-1.6,4-1.6c2.4,0,4.2,1.3,5.4,3.8l15,28.5
			l14.9-28.5c1.3-2.5,3.1-3.8,5.3-3.8C52.5,120,53.8,120.5,54.8,121.6z"/>
		<path class="st2" d="M72.3,167.5c-3.8-3.8-5.7-9.3-5.7-16.5v-25.3c0-1.7,0.5-3.1,1.6-4.1s2.4-1.6,4.1-1.6c1.7,0,3.1,0.5,4.1,1.6
			c1,1,1.5,2.4,1.5,4.1v25.8c0,4.1,0.9,7.3,2.8,9.5c1.9,2.2,4.6,3.3,8.2,3.3c3.6,0,6.4-1.1,8.3-3.3c1.9-2.2,2.9-5.3,2.9-9.4v-25.8
			c0-1.7,0.5-3.1,1.5-4.1c1-1,2.4-1.6,4.1-1.6c1.7,0,3.1,0.5,4.1,1.6s1.6,2.4,1.6,4.1V151c0,7.2-1.9,12.7-5.8,16.5
			c-3.8,3.8-9.4,5.7-16.7,5.7C81.6,173.1,76.1,171.3,72.3,167.5z"/>
		<path class="st2" d="M115.3,171.9c-1.2-0.8-1.7-2-1.7-3.6c0-1.5,0.4-2.6,1.1-3.3c0.7-0.7,1.9-1.1,3.5-1.2l2.4-0.1
			c3.5-0.1,5.3-2.2,5.3-6.3v-31.6c0-1.7,0.5-3.1,1.6-4.1c1.1-1,2.5-1.6,4.2-1.6c1.7,0,3.1,0.5,4.2,1.6c1.1,1,1.6,2.4,1.6,4.1v31.5
			c0,9.8-4.9,15-14.6,15.6l-2.4,0.1C118.2,173,116.5,172.7,115.3,171.9z"/>
		<path class="st2" d="M149.2,171.1c-0.9-0.9-1.4-2.3-1.4-4v-41.3c0-1.7,0.5-3.1,1.4-4c0.9-0.9,2.3-1.4,4-1.4h26.2
			c3.6,0,5.5,1.5,5.5,4.4c0,3-1.8,4.5-5.5,4.5h-20.3v12.2h18.8c3.6,0,5.5,1.5,5.5,4.5c0,3-1.8,4.4-5.5,4.4h-18.8v13.1h20.3
			c3.6,0,5.5,1.5,5.5,4.5c0,3-1.8,4.4-5.5,4.4h-26.2C151.5,172.5,150.2,172,149.2,171.1z"/>
		<path class="st2" d="M235.5,168.3c0,1.4-0.6,2.5-1.7,3.4c-1.1,0.9-2.4,1.3-3.9,1.3c-0.9,0-1.8-0.2-2.7-0.7
			c-0.9-0.4-1.6-1.1-2.2-2.1l-9.8-14.5c-0.8-1.3-1.7-2.2-2.7-2.8c-0.9-0.6-2.1-0.9-3.5-0.9h-6v14.9c0,1.8-0.5,3.2-1.5,4.2
			c-1,1-2.4,1.6-4.1,1.6c-1.8,0-3.2-0.5-4.2-1.6c-1-1-1.6-2.4-1.6-4.2v-41.4c0-1.7,0.5-3.1,1.4-4c0.9-0.9,2.3-1.4,4-1.4h18.5
			c6.1,0,10.7,1.3,13.9,4c3.1,2.7,4.7,6.6,4.7,11.6c0,4-1.1,7.3-3.3,10c-2.2,2.7-5.3,4.4-9.4,5.2c1.5,0.3,2.8,0.9,4,1.7
			c1.2,0.9,2.3,2.1,3.4,3.7l5.6,8.4C235.1,166.2,235.5,167.3,235.5,168.3z M221.1,141.8c1.5-1.2,2.2-3,2.2-5.4
			c0-2.5-0.7-4.3-2.2-5.5c-1.5-1.1-3.9-1.7-7.2-1.7h-11v14.3h11C217.2,143.5,219.6,142.9,221.1,141.8z"/>
		<path class="st2" d="M244.8,171.1c-0.9-0.9-1.4-2.3-1.4-4v-41.3c0-1.7,0.5-3.1,1.4-4c0.9-0.9,2.3-1.4,4-1.4H275
			c3.6,0,5.5,1.5,5.5,4.4c0,3-1.8,4.5-5.5,4.5h-20.3v12.2h18.8c3.6,0,5.5,1.5,5.5,4.5c0,3-1.8,4.4-5.5,4.4h-18.8v13.1H275
			c3.6,0,5.5,1.5,5.5,4.5c0,3-1.8,4.4-5.5,4.4h-26.2C247.1,172.5,245.8,172,244.8,171.1z"/>
		<path class="st2" d="M294.4,171.8c-3.4-0.9-6.1-2.2-8.2-3.9c-0.7-0.5-1.3-1.1-1.6-1.7c-0.3-0.6-0.5-1.4-0.5-2.3
			c0-1.2,0.4-2.3,1.1-3.3c0.8-0.9,1.6-1.4,2.6-1.4c0.5,0,1.1,0.1,1.6,0.3c0.5,0.2,1.1,0.5,1.9,0.9c2.1,1.3,4.3,2.3,6.4,2.9
			c2.2,0.6,4.6,0.9,7.2,0.9c3.3,0,5.7-0.5,7.5-1.6c1.7-1.1,2.6-2.6,2.6-4.7c0-1.5-0.8-2.8-2.4-3.7c-1.6-0.9-4.4-1.8-8.5-2.7
			c-4.6-0.9-8.2-2.1-11-3.4c-2.7-1.3-4.7-3-6-5c-1.3-2-1.9-4.4-1.9-7.2c0-3.1,0.9-5.9,2.7-8.4c1.8-2.5,4.3-4.4,7.5-5.8
			c3.2-1.4,6.8-2.1,10.8-2.1c7,0,12.8,1.7,17.3,5.2c0.7,0.6,1.3,1.2,1.6,1.8c0.3,0.6,0.5,1.4,0.5,2.3c0,1.2-0.4,2.3-1.1,3.3
			c-0.8,0.9-1.6,1.4-2.6,1.4c-0.5,0-1-0.1-1.5-0.2c-0.5-0.1-1.1-0.5-2-1c-2-1.3-3.9-2.2-5.6-2.9c-1.7-0.6-3.9-1-6.5-1
			c-3,0-5.4,0.6-7.1,1.7c-1.7,1.2-2.6,2.7-2.6,4.8c0,1.2,0.3,2.2,1,2.9c0.7,0.8,1.8,1.4,3.3,2c1.6,0.6,3.8,1.2,6.6,1.8
			c6.7,1.5,11.5,3.4,14.4,5.7c2.9,2.3,4.4,5.5,4.4,9.5c0,3.2-0.9,5.9-2.6,8.4c-1.7,2.4-4.2,4.3-7.4,5.6c-3.2,1.3-6.9,2-11,2
			C301.4,173.1,297.8,172.7,294.4,171.8z"/>
	</g>
	<g>
		<path class="st1" d="M177,101.9c-0.4-0.4-0.6-1-0.6-1.7V82.3c0-0.7,0.2-1.3,0.6-1.7c0.4-0.4,1-0.6,1.7-0.6h6.4
			c2.5,0,4.6,0.4,6.3,1.3c1.8,0.9,3.1,2.2,4.1,3.9c0.9,1.7,1.4,3.7,1.4,6c0,2.3-0.5,4.4-1.4,6.1c-0.9,1.7-2.3,3-4,3.9
			c-1.8,0.9-3.9,1.3-6.4,1.3h-6.4C178,102.5,177.4,102.3,177,101.9z M184.8,98.5c4.8,0,7.2-2.4,7.2-7.3c0-4.8-2.4-7.2-7.2-7.2h-3.4
			v14.5H184.8z"/>
		<path class="st1" d="M201.4,101.9c-0.4-0.4-0.6-1-0.6-1.7V82.3c0-0.7,0.2-1.3,0.6-1.7c0.4-0.4,1-0.6,1.7-0.6h11.3
			c1.6,0,2.4,0.6,2.4,1.9c0,1.3-0.8,2-2.4,2h-8.8v5.3h8.2c1.6,0,2.4,0.7,2.4,2c0,1.3-0.8,1.9-2.4,1.9h-8.2v5.7h8.8
			c1.6,0,2.4,0.7,2.4,2c0,1.3-0.8,1.9-2.4,1.9h-11.3C202.4,102.5,201.8,102.3,201.4,101.9z"/>
		<path class="st1" d="M229.3,101.9c-0.4-0.4-0.6-1-0.6-1.7V82.3c0-0.7,0.2-1.3,0.7-1.8c0.4-0.4,1.1-0.7,1.8-0.7
			c0.8,0,1.4,0.2,1.8,0.7c0.4,0.4,0.7,1,0.7,1.8v16.2h8.2c1.6,0,2.3,0.7,2.3,2c0,1.3-0.8,2-2.3,2H231
			C230.3,102.5,229.7,102.3,229.3,101.9z"/>
		<path class="st1" d="M267.9,100.5c0,0.6-0.2,1.1-0.7,1.5c-0.5,0.4-1,0.6-1.6,0.6c-0.4,0-0.8-0.1-1.2-0.3c-0.4-0.2-0.6-0.6-0.8-1
			l-1.7-3.8H251l-1.7,3.8c-0.2,0.4-0.5,0.8-0.8,1c-0.4,0.2-0.7,0.3-1.2,0.3c-0.6,0-1.2-0.2-1.7-0.6c-0.5-0.4-0.7-0.9-0.7-1.5
			c0-0.3,0.1-0.6,0.3-1l8.6-18.1c0.2-0.5,0.6-0.9,1.1-1.2c0.5-0.3,1-0.4,1.5-0.4c0.6,0,1.1,0.1,1.5,0.4c0.5,0.3,0.8,0.7,1.1,1.2
			l8.6,18.1C267.8,99.9,267.9,100.2,267.9,100.5z M252.7,93.8h7.5l-3.7-8.3L252.7,93.8z"/>
		<path class="st1" d="M273.8,102.2c-1.5-0.4-2.6-1-3.6-1.7c-0.3-0.2-0.5-0.5-0.7-0.8c-0.1-0.3-0.2-0.6-0.2-1c0-0.5,0.2-1,0.5-1.4
			c0.3-0.4,0.7-0.6,1.1-0.6c0.2,0,0.5,0,0.7,0.1c0.2,0.1,0.5,0.2,0.8,0.4c0.9,0.6,1.8,1,2.8,1.3c0.9,0.3,2,0.4,3.1,0.4
			c1.4,0,2.5-0.2,3.2-0.7c0.7-0.5,1.1-1.1,1.1-2c0-0.7-0.3-1.2-1-1.6c-0.7-0.4-1.9-0.8-3.7-1.2c-2-0.4-3.6-0.9-4.7-1.5
			c-1.2-0.6-2-1.3-2.6-2.1c-0.5-0.9-0.8-1.9-0.8-3.1c0-1.3,0.4-2.6,1.2-3.6c0.8-1.1,1.9-1.9,3.2-2.5c1.4-0.6,2.9-0.9,4.7-0.9
			c3,0,5.5,0.8,7.5,2.3c0.3,0.3,0.5,0.5,0.7,0.8c0.1,0.3,0.2,0.6,0.2,1c0,0.5-0.2,1-0.5,1.4c-0.3,0.4-0.7,0.6-1.1,0.6
			c-0.2,0-0.5,0-0.7-0.1c-0.2-0.1-0.5-0.2-0.8-0.4c-0.9-0.6-1.7-1-2.4-1.2c-0.7-0.3-1.7-0.4-2.8-0.4c-1.3,0-2.3,0.3-3.1,0.8
			c-0.7,0.5-1.1,1.2-1.1,2.1c0,0.5,0.1,0.9,0.4,1.3c0.3,0.3,0.8,0.6,1.4,0.9s1.6,0.5,2.9,0.8c2.9,0.6,5,1.5,6.3,2.5
			c1.3,1,1.9,2.4,1.9,4.1c0,1.4-0.4,2.6-1.1,3.6c-0.8,1-1.8,1.9-3.2,2.4c-1.4,0.6-3,0.9-4.8,0.9
			C276.8,102.8,275.2,102.6,273.8,102.2z"/>
	</g>
	<path class="st3" d="M291.5,52.7L291.5,52.7c-0.8,0-1.5-0.4-1.9-1l-8.4-11.3c-0.6-0.8-0.6-1.8,0-2.5l8.4-11.3c0.5-0.6,1.2-1,1.9-1
		h70.1v27.1H291.5z"/>
	<polygon class="st3" points="347.7,60.3 353.4,60.3 353.4,67.7 347.7,67.7 347.7,60.3 	"/>
	<path class="st3" d="M418.2,90.1l-8.4,11.3c-0.5,0.6-1.2,1-1.9,1h-70.1V75.3h70.1c0.8,0,1.5,0.4,1.9,1l8.4,11.3
		C418.8,88.3,418.8,89.3,418.2,90.1z"/>
	<circle class="st2" cx="348.5" cy="38.8" r="7"/>
	<circle class="st2" cx="348.5" cy="88.8" r="7"/>
</g>
</svg>
